<svg xmlns="http://www.w3.org/2000/svg" viewBox="0 0 1183 278">
 <title>logo_reversed</title>
 <path d="M424.8,251l.4-1.4c.1-.4.3-.5.5-.5s.3.1.3.5a25.61,25.61,0,0,0-.3,3.9c0,2.2.2,3.5.2,3.8s-.1.4-.3.4c-.4,0-.5-.4-.6-1.2l-.4-2.6a32.53,32.53,0,0,0-9.8-1.2c-1.2,0-2.5.1-3.7.2-.2,2.6-.3,5.1-.3,7.7v4.5h4.5a27.61,27.61,0,0,0,8.1-.9l.2-1.1c.3-1.5.4-2.2.9-2.2.2,0,.2.2.2.5-.2,1.5-.3,2.9-.4,4.4,0,2.2.2,3.7.2,4.3,0,.3-.1.5-.3.5-.4,0-.5-.7-.7-2.2l-.2-1.4a28,28,0,0,0-8.1-.9h-4.5v5.1a67.81,67.81,0,0,0,.3,7.8c.9,0,1.8.1,2.7.1a29.55,29.55,0,0,0,11-1.8l.4-2.3c.1-.8.2-1.2.6-1.2.2,0,.3.1.3.4s-.2,1.6-.2,3.8a20.68,20.68,0,0,0,.3,3.5c0,.4,0,.6-.3.6s-.3-.2-.5-.6l-.3-.7c-4.3-.4-8.7-.6-13-.6h-3.2c-2.5,0-4,.3-4.5.3s-.6-.1-.6-.4c0-.5,1.3-.8,3.9-1.1q.3-3.9.3-7.8V260.6c0-2.6-.1-5.2-.3-7.7-2.6-.3-3.9-.5-3.9-1,0-.3.2-.4.6-.4a41.93,41.93,0,0,0,5,.3h4.3a84.36,84.36,0,0,0,11.2-.8" style="fill:#fff" transform="translate(-50.3 -39.2)"/>
 <path d="M465.6,271.1a67.81,67.81,0,0,0,.3,7.8c3.2.2,4.8.5,4.8,1,0,.3-.2.4-.6.4s-2.5-.3-6-.3c-2.6,0-4.2.3-5,.3-.4,0-.6-.1-.6-.4,0-.5,1.3-.8,3.9-1,.2-2.5.3-5,.3-7.8V260.6a63.56,63.56,0,0,0-.3-7.7c-2.6-.3-3.9-.5-3.9-1,0-.3.2-.4.6-.4.7,0,2.4.4,5,.4s5-.4,7-.4c6.4,0,10,2.9,10,7.6,0,4.9-4.3,8.6-11.2,8.6a31.08,31.08,0,0,1-4.3-.3v3.7m3.9-4.5c5.3,0,8.3-2.6,8.3-7.1s-2.9-7.1-8-7.1a17.37,17.37,0,0,0-3.9.5c-.2,2.5-.3,5.1-.3,7.7v5.8c1.3.1,2.6.2,3.9.2" style="fill:#fff" transform="translate(-50.3 -39.2)"/>
 <path d="M519.1,278.9c2.6.3,3.9.5,3.9,1.1,0,.3-.2.4-.6.4-.8,0-2.4-.3-5-.3s-4.2.3-5,.3c-.4,0-.6-.1-.6-.4,0-.5,1.3-.8,3.9-1.1q.3-3.9.3-7.8V260.6c0-2.6-.1-5.2-.3-7.7-2.6-.3-3.9-.5-3.9-1,0-.3.2-.4.7-.4.7,0,2.4.4,5,.4s4.3-.4,5-.4c.4,0,.6.1.6.4,0,.5-1.3.8-3.9,1-.2,2.6-.3,5.1-.3,7.7v10.5c0,2.7,0,5.2.2,7.8" style="fill:#fff" transform="translate(-50.3 -39.2)"/>
 <path d="M556.4,281c-.2.4-.3.7-.6.7s-.4-.1-.4-.4a41.36,41.36,0,0,0,.6-7c0-2-.2-3.4-.2-4.1,0-.5.1-.7.4-.7.6,0,.8,2,1.3,6,2.9,2.5,5.8,3.7,8.5,3.7,4.3,0,7.6-3.1,7.6-6.5a3.48,3.48,0,0,0-1.4-3c-2-1.4-4.8-1.5-8.5-2.1-5.2-.8-7.7-3.1-7.7-7.2,0-5.5,4-9.3,9.8-9.3a17.51,17.51,0,0,1,7.1,1.6l.7-2c.2-.4.2-.7.6-.7s.3.1.3.4a35.29,35.29,0,0,0-.8,7.2c0,.9.1,1.6.1,2.1s-.1.7-.4.7c-.6,0-.7-1.4-.9-4.5a11.07,11.07,0,0,0-7.8-3.3c-4.3,0-7.5,3-7.5,6.3,0,3.5,2.6,4.1,8.1,5.1a29.2,29.2,0,0,1,6.5,1.5c1.9.8,3.1,2.9,3.1,5.5,0,5.5-4.4,9.8-10.6,9.8a17,17,0,0,1-7.3-1.7l-.6,1.9" style="fill:#fff" transform="translate(-50.3 -39.2)"/>
 <path d="M620.4,252.4c-5.8,0-10.1,4.4-10.1,10.9a18.85,18.85,0,0,0,2.9,10.1,11.71,11.71,0,0,0,10,5.7,9.49,9.49,0,0,0,5.4-1.6c1.4-.9,2-1.8,2.2-1.8a.27.27,0,0,1,.3.3,6.23,6.23,0,0,1-1.7,2,12.21,12.21,0,0,1-8.2,2.8c-7.9,0-13.6-5.6-13.6-14.2a15.35,15.35,0,0,1,3.3-10.1,14.2,14.2,0,0,1,11.5-5.5,19.42,19.42,0,0,1,7.5,1.6c.3-2.2.6-3.3,1.1-3.3q.3,0,.3.6a54.92,54.92,0,0,0-.5,7c0,3.3.2,5.1.2,5.3s-.1.4-.3.4h0c-.5,0-.7-1.2-1-3.6l-.3-3.1a13.72,13.72,0,0,0-9-3.5" style="fill:#fff" transform="translate(-50.3 -39.2)"/>
 <path d="M688.8,275.5A15.48,15.48,0,0,1,667,277c-.2-.1-.3-.3-.4-.4a14,14,0,0,1-4.1-10.3,16.12,16.12,0,0,1,2.2-8.3,15.37,15.37,0,0,1,21.3-4.6,10.92,10.92,0,0,1,1.7,1.3,14.07,14.07,0,0,1,4.5,10.9,14.91,14.91,0,0,1-3.4,9.9m-3.2,1.7a10.29,10.29,0,0,0,4.7-8.6,15.92,15.92,0,0,0-3.6-10,14.31,14.31,0,0,0-11.1-5.8c-6.5,0-10.9,4.6-10.9,10.7a15.48,15.48,0,0,0,3.9,9.8c3.1,3.7,7,5.8,10.9,5.8a10.7,10.7,0,0,0,6.1-1.9" style="fill:#fff" transform="translate(-50.3 -39.2)"/>
 <path d="M730.3,271.1a67.81,67.81,0,0,0,.3,7.8c3.2.2,4.8.5,4.8,1,0,.3-.2.4-.7.4s-2.5-.3-6-.3c-2.6,0-4.2.3-5,.3-.5,0-.7-.1-.7-.4,0-.5,1.3-.8,3.9-1,.2-2.5.3-5,.3-7.8V260.6a63.56,63.56,0,0,0-.3-7.7c-2.6-.3-3.9-.5-3.9-1,0-.3.2-.4.7-.4.7,0,2.4.4,5,.4s5-.4,7-.4c6.4,0,10,2.9,10,7.6,0,4.9-4.3,8.6-11.2,8.6a31.08,31.08,0,0,1-4.3-.3l.1,3.7m4-4.5c5.3,0,8.3-2.6,8.3-7.1s-2.9-7.1-8-7.1a17.37,17.37,0,0,0-3.9.5c-.2,2.5-.3,5.1-.3,7.7v5.8c1.3.1,2.6.2,3.9.2" style="fill:#fff" transform="translate(-50.3 -39.2)"/>
 <path d="M779.8,273a57.2,57.2,0,0,0-1.7,5.9c3.1.2,4.7.5,4.7,1,0,.3-.2.4-.7.4-.8,0-2.4-.3-4.7-.3-2.6,0-4.2.3-5,.3-.4,0-.6-.1-.6-.4,0-.5,1.3-.8,3.9-1,1.2-2.3,2.3-4.8,3.5-7.6l6.2-15.1c-.7-1.6-1.4-3-2.2-4.5l3.3-1.4a69.63,69.63,0,0,0,3.9,10.8l4.7,11a54.19,54.19,0,0,0,3.2,6.9c2.6.3,3.9.5,3.9,1,0,.3-.2.4-.6.4s-2.5-.3-5.7-.3-4.9.3-5.5.3c-.4,0-.6-.1-.6-.4,0-.6,1.6-.8,4.7-1a38.53,38.53,0,0,0-2-5.7l-1-2.3H780.7l-.9,2m11.3-3-5.2-12.6L781,270Z" style="fill:#fff" transform="translate(-50.3 -39.2)"/>
 <path d="M833.9,252.9c-2.6-.3-3.9-.5-3.9-1,0-.3.2-.4.7-.4a41.82,41.82,0,0,0,10,0c.5,0,.7.1.7.4,0,.5-1.3.8-3.9,1-.2,2.6-.3,5.2-.3,7.7v10.5a67.81,67.81,0,0,0,.3,7.8c.9,0,1.8.1,2.7.1a29.55,29.55,0,0,0,11-1.8l.3-2.3c.1-.8.2-1.2.6-1.2.2,0,.3.1.3.5s-.2,1.6-.2,3.8a20.68,20.68,0,0,0,.3,3.5c0,.4,0,.6-.3.6s-.3-.2-.4-.6l-.3-.7a113.12,113.12,0,0,0-13-.6h-3.2c-2.5,0-4,.3-4.5.3s-.7-.1-.7-.4c0-.5,1.3-.8,3.9-1,.2-2.5.3-5,.3-7.8V260.7c-.1-2.8-.1-5.4-.4-7.8" style="fill:#fff" transform="translate(-50.3 -39.2)"/>
 <path d="M923.3,281c-.2.4-.3.7-.6.7s-.3-.1-.3-.4a41.36,41.36,0,0,0,.6-7c0-2-.2-3.4-.2-4.1,0-.5.1-.7.4-.7.5,0,.8,2,1.3,6,2.9,2.5,5.8,3.7,8.5,3.7,4.3,0,7.6-3.1,7.6-6.5a3.48,3.48,0,0,0-1.4-3c-2-1.4-4.8-1.5-8.5-2.1-5.1-.8-7.6-3.1-7.6-7.2,0-5.5,4-9.3,9.8-9.3a17.51,17.51,0,0,1,7.1,1.6l.7-2c.2-.4.2-.7.6-.7s.3.1.3.4a35.29,35.29,0,0,0-.8,7.2c0,.9.1,1.6.1,2.1s-.1.7-.4.7c-.6,0-.7-1.4-.9-4.5a11.07,11.07,0,0,0-7.8-3.3c-4.3,0-7.5,3-7.5,6.3,0,3.5,2.6,4.1,8.1,5.1a29.2,29.2,0,0,1,6.5,1.5c1.9.8,3.1,2.9,3.1,5.5,0,5.5-4.4,9.8-10.6,9.8a17.8,17.8,0,0,1-7.2-1.8l-.9,2" style="fill:#fff" transform="translate(-50.3 -39.2)"/>
 <path d="M987.2,252.4c-5.8,0-10.1,4.4-10.1,10.9a18.85,18.85,0,0,0,2.9,10.1,11.71,11.71,0,0,0,10,5.7,9.49,9.49,0,0,0,5.4-1.6c1.4-.9,2-1.8,2.3-1.8s.3.1.3.3a6.23,6.23,0,0,1-1.7,2,12.65,12.65,0,0,1-8.3,2.8c-7.9,0-13.5-5.6-13.5-14.2a15.35,15.35,0,0,1,3.3-10.1,13.89,13.89,0,0,1,11.6-5.4,19.42,19.42,0,0,1,7.5,1.6c.3-2.2.6-3.3,1.1-3.3q.3,0,.3.6a54.92,54.92,0,0,0-.5,7c0,3.3.2,5.1.2,5.3s-.1.4-.3.4h0c-.5,0-.7-1.2-1-3.6l-.3-3.1a14.22,14.22,0,0,0-9.2-3.6" style="fill:#fff" transform="translate(-50.3 -39.2)"/>
 <path d="M1051.3,265.5v-4.9a65.23,65.23,0,0,0-.3-7.7c-2.6-.3-3.9-.5-3.9-1,0-.3.2-.4.7-.4.7,0,2.4.4,5,.4s4.3-.4,5-.4c.4,0,.6.1.6.4,0,.5-1.3.8-3.9,1-.2,2.6-.3,5.1-.3,7.7v10.5a67.81,67.81,0,0,0,.3,7.8c2.6.3,3.9.5,3.9,1,0,.3-.2.4-.6.4-.8,0-2.5-.3-5-.3s-4.2.3-5,.3c-.4,0-.7-.1-.7-.4,0-.5,1.3-.8,3.9-1q.3-3.75.3-7.8v-4.7h-14.8v4.7a67.81,67.81,0,0,0,.3,7.8c2.6.3,3.9.5,3.9,1,0,.3-.2.4-.7.4-.8,0-2.4-.3-5-.3s-4.2.3-5,.3c-.4,0-.7-.1-.7-.4,0-.5,1.3-.8,3.9-1,.2-2.5.3-5,.3-7.8V260.6a63.56,63.56,0,0,0-.3-7.7c-2.6-.3-3.9-.5-3.9-1,0-.3.2-.4.7-.4.7,0,2.4.4,5,.4s4.3-.4,5-.4c.4,0,.7.1.7.4,0,.5-1.3.8-3.9,1-.2,2.6-.3,5.1-.3,7.7v4.9h14.8" style="fill:#fff" transform="translate(-50.3 -39.2)"/>
 <path d="M1115.6,275.5a15.37,15.37,0,0,1-21.7,1.5c-.2-.1-.3-.3-.4-.4a14,14,0,0,1-4.1-10.3,16.12,16.12,0,0,1,2.2-8.3,15.38,15.38,0,0,1,21.3-4.6,10.92,10.92,0,0,1,1.7,1.3,14.07,14.07,0,0,1,4.5,10.9,15,15,0,0,1-3.5,9.9m-3.2,1.7a10.29,10.29,0,0,0,4.7-8.6,15.92,15.92,0,0,0-3.6-10,14.31,14.31,0,0,0-11.1-5.8c-6.5,0-10.9,4.6-10.9,10.7a15.94,15.94,0,0,0,3.8,9.8c3.1,3.7,7,5.8,10.9,5.8a10.56,10.56,0,0,0,6.2-1.9" style="fill:#fff" transform="translate(-50.3 -39.2)"/>
 <path d="M1176.4,275.5a15.48,15.48,0,0,1-21.8,1.5c-.2-.1-.3-.3-.4-.4a14,14,0,0,1-4.1-10.3,16.12,16.12,0,0,1,2.2-8.3,15.38,15.38,0,0,1,21.3-4.6,10.92,10.92,0,0,1,1.7,1.3,14.07,14.07,0,0,1,4.5,10.9,14.91,14.91,0,0,1-3.4,9.9m-3.2,1.7a10.29,10.29,0,0,0,4.7-8.6,15.92,15.92,0,0,0-3.6-10,14.31,14.31,0,0,0-11.1-5.8c-6.5,0-10.9,4.6-10.9,10.7a15.48,15.48,0,0,0,3.9,9.8c3.1,3.7,7,5.8,10.9,5.8a10.93,10.93,0,0,0,6.1-1.9" style="fill:#fff" transform="translate(-50.3 -39.2)"/>
 <path d="M1214.7,252.9c-2.6-.3-3.9-.5-3.9-1,0-.3.2-.4.7-.4a41.82,41.82,0,0,0,10,0c.4,0,.6.1.6.4,0,.5-1.3.8-3.9,1-.2,2.6-.3,5.2-.3,7.7v10.5a67.81,67.81,0,0,0,.3,7.8c.9,0,1.8.1,2.7.1a29.55,29.55,0,0,0,11-1.8l.4-2.3c.1-.8.2-1.2.6-1.2.2,0,.3.1.3.5s-.2,1.6-.2,3.8a20.68,20.68,0,0,0,.3,3.5c0,.4,0,.6-.3.6s-.3-.2-.4-.6l-.3-.7a113.12,113.12,0,0,0-13-.6h-3.2c-2.4,0-4,.3-4.5.3s-.7-.1-.7-.4c0-.5,1.3-.8,3.9-1,.2-2.5.3-5,.3-7.8V260.7c-.1-2.8-.1-5.4-.4-7.8" style="fill:#fff" transform="translate(-50.3 -39.2)"/>
 <path d="M406,216.6c-.6,1.8-1.1,2.7-2.2,2.7a1.24,1.24,0,0,1-1.4-1.1v-.4c0-2.2,2.5-11.5,2.5-28.1,0-8-.8-13.5-.8-16.2,0-1.9.3-2.9,1.4-2.9,2.2,0,3,7.9,5.1,23.7,11.5,9.9,22.9,14.9,34,14.9,17.3,0,30.3-12.4,30.3-26.1,0-5.4-1.9-9.5-5.6-12-8-5.4-19.2-6.1-33.8-8.3C415,159.8,405,150.5,405,134c0-22,16-37.2,39.1-37.2a68.59,68.59,0,0,1,28.2,6.6l2.7-8c.6-1.8,1-2.7,2.4-2.7,1,0,1.1.5,1.1,1.4,0,2.7-3.2,12.2-3.2,28.8,0,3.7.3,6.4.3,8.2s-.5,2.7-1.6,2.7c-2.4,0-2.7-5.6-3.5-17.8-8.8-8.5-19.4-13-31.1-13-17.3,0-30,11.8-30,25,0,13.8,10.4,16.4,32.4,20.2,8.8,1.6,17.8,2.4,26,6.1,7.5,3.4,12.2,11.7,12.2,22.1,0,22.1-17.5,38.9-42.3,38.9-9.1,0-18.8-2.2-29-6.9l-2.7,8.2" style="fill:#fff" transform="translate(-50.3 -39.2)"/>
 <path d="M531.4,209.4c8.4.7,12.7,1.4,12.7,2.9,0,.8-.6,1-1.8,1-1.6,0-6.8-.9-15.8-.9s-14.2.9-15.8.9c-1.2,0-1.8-.2-1.8-1,0-1.6,4.3-2.2,12.7-2.9a214.46,214.46,0,0,0,.8-21.7V158.3a219.43,219.43,0,0,0-.8-22h-1.3c-9.9,0-18.1,1.2-24.4,3.3l-1,7.3c-.3,2.2-.6,3.5-1.6,3.5-.6,0-.9-.6-.9-1.2s.5-4.3.5-10.7c0-5.8-.9-9.5-.9-11.1,0-.8.5-1.2.9-1.2s.9.4,1.2,1.5l1.1,3.8a234,234,0,0,0,31.3,2.1,272.68,272.68,0,0,0,31.3-2.1l1.2-3.8q.45-1.5,1.2-1.5c.5,0,.8.4.8,1.5a98.07,98.07,0,0,0-.9,10.9c0,6.3.5,9.9.5,10.7s-.3,1.2-.9,1.2c-1,0-1.2-1.2-1.6-3.5l-.9-7.3a81.87,81.87,0,0,0-24.5-3.3h-1.3c-.7,7.2-.8,14.5-.8,22v29.4c0,7.3.1,14.4.8,21.6" style="fill:#fff" transform="translate(-50.3 -39.2)"/>
 <path d="M665.5,158.5c-1.1,12.5-1.6,24.9-1.6,37.2,0,4.2,0,8.2.2,12.4,11.7,1,17.3,2.1,17.3,4.2,0,1.1-.8,1.4-2.6,1.4-2.9,0-9.5-1.3-19.9-1.3-7.8,0-13.8,1.3-17.5,1.3-1.8,0-2.6-.3-2.6-1.4,0-1.9,4.8-2.9,14.4-4.2,2.7-9.4,5.6-25.6,7.9-47.9l4.2-42.5c-3.5-8.3-6.4-13.3-11.5-14.9-3.2-1-5.8-.6-5.8-2.6,0-1.1.8-1.6,2.5-1.6a122.23,122.23,0,0,0,13.5.8c1.9,0,4,0,6.4-.2C675.5,112,679.5,121,682,126l26.6,54.3,29.7-81.1c4.3.2,7.4.2,9.3.2,7.9,0,12.3-.8,13.6-.8,1.8,0,2.6.5,2.6,1.6,0,1.8-4.2,2.6-12.5,4.2l5.1,70.4c.8,10.3,1.9,21.5,4,33.4,9,1.4,13.5,2.2,13.5,4.2,0,1.1-.8,1.4-2.6,1.4-3,0-9.6-1.3-19.9-1.3s-17,1.3-20,1.3c-1.8,0-2.4-.3-2.4-1.4,0-2.1,5.4-3.2,16.7-4.2.2-2.2.2-4.6.2-7.2,0-6.6-.3-13.9-1-22l-5.4-71.5-31.9,88.2c-.6,1.9-1.1,2.7-2.2,2.7s-1.3-1-2.1-2.6l-34.6-71.2-3.2,33.9" style="fill:#fff" transform="translate(-50.3 -39.2)"/>
 <path d="M803.1,192.9a155.4,155.4,0,0,0-4.7,16.5c8.6.6,13,1.4,13,2.9,0,.8-.6,1-1.8,1-2.3,0-6.7-.9-13.1-.9-7.2,0-11.9.9-14,.9-1.2,0-1.7-.2-1.7-1,0-1.4,3.6-2.1,10.8-2.9,3.4-6.4,6.5-13.4,9.8-21.3l17.3-42.2c-1.9-4.4-3.8-8.5-6-12.6l9.3-3.9c1.7,7,5.4,16.9,10.9,30l13,30.9a167.79,167.79,0,0,0,9,19.2c7.2.8,10.8,1.5,10.8,2.9,0,.8-.6,1-1.8,1-1.6,0-6.8-.9-15.8-.9-8.5,0-13.7.9-15.4.9-1.2,0-1.8-.2-1.8-1,0-1.6,4.4-2.2,13-2.9a129.93,129.93,0,0,0-5.5-15.9l-2.7-6.4H805.3l-2.2,5.7m31.5-8.3-14.5-35.1-13.8,35.1Z" style="fill:#fff" transform="translate(-50.3 -39.2)"/>
 <path d="M890.9,158.4v29.3c0,7.3.1,14.5.8,21.6,7.7.7,11.6,1.5,11.6,2.9,0,.8-.6,1-1.7,1-1.8,0-6.8-.9-14.8-.9-7.2,0-11.8.9-13.9.9-1.2,0-1.8-.2-1.8-1,0-1.4,3.6-2.1,10.8-2.9a214.7,214.7,0,0,0,.8-21.6V158.4a212.68,212.68,0,0,0-.8-21.5c-7.2-.8-10.8-1.5-10.8-2.9,0-.8.6-1.1,1.8-1.1,2,0,6.7,1,13.9,1,6.2,0,13-.9,20.2-.9,17.1,0,26.9,8,26.9,19.5,0,12.6-10.8,22.6-29.4,23.8l20.6,26.6c3.3,4.1,5.3,6.6,8.8,6.6,2.5,0,4.4-1.3,5.5-1.3a.81.81,0,0,1,.9.7v.2c0,1.3-5.7,5.6-12.1,5.6-5.4,0-8.2-3.4-12.3-9.1l-19.7-27.7c-.9-1.2-1.8-2-1.8-3a1.5,1.5,0,0,1,1.7-1.3c1.2,0,3.1.4,5.8.4,15.8,0,23.8-6,23.8-17.8s-8.9-20.4-22.7-20.4a69.76,69.76,0,0,0-11.2,1.2,188.49,188.49,0,0,0-.9,21.4" style="fill:#fff" transform="translate(-50.3 -39.2)"/>
 <path d="M980.3,209.4c8.4.7,12.7,1.4,12.7,2.9,0,.8-.6,1-1.8,1-1.6,0-6.9-.9-15.8-.9s-14.2.9-15.8.9c-1.2,0-1.8-.2-1.8-1,0-1.6,4.3-2.2,12.7-2.9a214.46,214.46,0,0,0,.8-21.7V158.3a219.43,219.43,0,0,0-.8-22H969c-9.9,0-18.1,1.2-24.4,3.3l-1,7.3c-.3,2.2-.6,3.5-1.6,3.5-.6,0-.9-.6-.9-1.2s.5-4.3.5-10.7c0-5.8-.9-9.5-.9-11.1,0-.8.5-1.2.9-1.2s.9.4,1.2,1.5l1.1,3.8a234,234,0,0,0,31.3,2.1,272.68,272.68,0,0,0,31.3-2.1l1.2-3.8q.45-1.5,1.2-1.5c.5,0,.8.4.8,1.5a98.07,98.07,0,0,0-.9,10.9c0,6.3.5,9.9.5,10.7s-.3,1.2-.9,1.2c-1,0-1.2-1.2-1.6-3.5l-.9-7.3a81.87,81.87,0,0,0-24.5-3.3h-1.3c-.7,7.2-.8,14.5-.8,22v29.4c.1,7.3.2,14.4,1,21.6" style="fill:#fff" transform="translate(-50.3 -39.2)"/>
 <path d="M1038.9,209.4c7.2.8,10.8,1.5,10.8,2.9,0,.8-.6,1-1.8,1-2.1,0-6.7-.9-13.9-.9s-11.8.9-13.9.9c-1.2,0-1.8-.2-1.8-1,0-1.5,3.6-2.1,10.8-2.9a214.46,214.46,0,0,0,.8-21.7V158.3a212.68,212.68,0,0,0-.8-21.5c-7.2-.8-10.8-1.5-10.8-2.9,0-.8.6-1.1,1.8-1.1,2,0,6.7,1,13.9,1s11.9-1,13.9-1c1.2,0,1.8.3,1.8,1.1,0,1.5-3.6,2.1-10.8,2.9-.7,7.2-.8,14.3-.8,21.5v29.4c.1,7.4.2,14.5.8,21.7" style="fill:#fff" transform="translate(-50.3 -39.2)"/>
 <path d="M1075.2,180.7a183.81,183.81,0,0,0,2,28.7c8.2.7,12.3,1.4,12.3,2.9,0,.8-.7,1-1.8,1-2,0-6.4-.9-13.4-.9-5.4,0-9.4.9-11.9.9-1.1,0-1.7-.2-1.7-1,0-1.4,3-1.9,9.3-2.9,1.2-5.1,2.2-13.9,2.2-26.1V142.8c-5.8-8.1-11-7.4-11-8.9,0-.8.7-1.1,1.8-1.1a60.75,60.75,0,0,0,9.5.7c1.1,0,2.3-.1,3.7-.1l49.5,64.7V166c0-13.1-.7-22.8-1.8-29.2-7.7-.7-11.5-1.5-11.5-2.9,0-.8.6-1.1,1.7-1.1,1.9,0,6.3,1,13.2,1,5.4,0,9.4-1,11.8-1,1.1,0,1.7.3,1.7,1.1,0,1.5-3.4,2.1-10.1,2.9-1.5,8.4-2,20.6-2,36.8v40.1c0,.7,0,1-.6,1s-1.3-.6-2.4-1.9L1075,146v34.7" style="fill:#fff" transform="translate(-50.3 -39.2)"/>
 <path d="M1180,215.4c-.4,1.2-.8,1.9-1.6,1.9a.89.89,0,0,1-1-.8v-.2c0-1.6,1.8-8.1,1.8-19.6,0-5.6-.6-9.4-.6-11.3,0-1.3.2-2,1-2,1.6,0,2.1,5.5,3.6,16.6,8.1,6.9,16,10.4,23.8,10.4,12.1,0,21.2-8.6,21.2-18.3,0-3.8-1.4-6.6-3.9-8.4-5.6-3.8-13.5-4.3-23.7-5.8-14.4-2.1-21.3-8.6-21.3-20.2,0-15.4,11.2-26,27.4-26a48.64,48.64,0,0,1,19.8,4.6l1.9-5.6c.4-1.2.7-1.9,1.7-1.9.7,0,.8.3.8,1,0,1.9-2.2,8.5-2.2,20.2,0,2.6.2,4.5.2,5.7s-.3,1.9-1.1,1.9c-1.7,0-1.9-3.9-2.5-12.5a30.81,30.81,0,0,0-21.8-9.1c-12.1,0-21,8.3-21,17.5,0,9.7,7.3,11.4,22.7,14.1,6.2,1.1,12.4,1.7,18.2,4.3,5.3,2.4,8.5,8.2,8.5,15.5,0,15.5-12.2,27.3-29.6,27.3a49.18,49.18,0,0,1-20.3-4.8l-2,5.5" style="fill:#fff" transform="translate(-50.3 -39.2)"/>
 <polygon points="518 175.4 514.7 170.2 509.6 166.9 514.7 163.6 518 158.5 521.4 163.6 526.5 166.9 521.4 170.2 518 175.4" style="fill:#fff"/>
 <path d="M1152.2,151.1c9.4-4.1,15.2-10.8,16.7-22.3.3-2-.4-1.3.5-2.9.3-.6,2.4-3.8,2.4-4.1l-6.1-2.2-4.2-5.1c-.4,1.9-3.4,6.8-3.4,6.8s-4.4,3.3-4.4,4.4c0,.6,4.6,2.4,4.6,2.4,3.2,3.2,2.3,6.8,2.3,8.4,0,5.5-5.3,9.3-10.2,12.2l1.8,2.4" style="fill:#fff" transform="translate(-50.3 -39.2)"/>
 <polygon points="289.9 74.6 289.9 0 194.4 0 145.2 83.5 96.3 0 0 0 0 74.6 19.5 74.6 19.5 202.6 0 202.6 0 278 117.1 278 117.1 202.6 96.8 202.6 96.8 144 125.4 190.1 144.7 222.5 164.1 190.1 192.3 144 192.3 202.6 172.7 202.6 172.7 278 289.9 278 289.9 202.6 271.3 202.6 271.3 74.6 289.9 74.6" style="fill:#fff"/>
 <polygon points="1.3 1.3 95.5 1.3 145.2 86.1 195.1 1.3 288.6 1.3 288.6 73.3 270 73.3 270 203.9 288.6 203.9 288.6 276.6 174.1 276.6 174.1 203.9 193.5 203.9 193.5 139.4 162.9 189.4 144.7 220 126.5 189.4 95.5 139.4 95.5 203.9 115.8 203.9 115.8 276.6 1.3 276.6 1.3 203.9 20.8 203.9 20.8 73.3 1.3 73.3 1.3 1.3" style="fill:#df1e40"/>
 <polygon points="127.9 122.3 127.9 112.9 134.2 112.9 134.2 119.2 142.9 119.2 142.9 110.4 136.1 103.9 125 103.9 118.3 110.4 118.3 124.7 125.7 131.6 134.2 132.4 134.2 142.1 127.9 142.1 127.9 135.9 118.3 135.9 118.3 144.6 125 151.1 137.1 151.1 143.8 144.6 143.8 130 136.4 123.1 127.9 122.3" style="fill:#fff"/>
 <polygon points="147.1 103.9 147.1 112.9 153.9 112.9 153.9 151.1 163.6 151.1 163.6 112.9 170.4 112.9 170.4 103.9 147.1 103.9" style="fill:#fff"/>
</svg>
